<mxfile host="app.diagrams.net" modified="2020-09-28T06:03:25.924Z" agent="5.0 (Windows NT 10.0; Win64; x64) AppleWebKit/537.36 (KHTML, like Gecko) Chrome/85.0.4183.83 YaBrowser/20.9.0.933 Yowser/2.5 Safari/537.36" etag="3R0s7ADPDWrVafBe1HIW" version="13.7.5" type="github">
  <diagram name="Page-1" id="9f46799a-70d6-7492-0946-bef42562c5a5">
    <mxGraphModel dx="1090" dy="581" grid="1" gridSize="10" guides="1" tooltips="1" connect="1" arrows="1" fold="1" page="1" pageScale="1" pageWidth="1100" pageHeight="850" background="#ffffff" math="0" shadow="0">
      <root>
        <mxCell id="0" />
        <mxCell id="1" parent="0" />
        <mxCell id="2ZAYoPAfcxRGO_iiZ7II-127" value="" style="group" vertex="1" connectable="0" parent="1">
          <mxGeometry x="30" y="20" width="220" height="140" as="geometry" />
        </mxCell>
        <mxCell id="2ZAYoPAfcxRGO_iiZ7II-126" value="" style="group" vertex="1" connectable="0" parent="2ZAYoPAfcxRGO_iiZ7II-127">
          <mxGeometry width="220" height="140" as="geometry" />
        </mxCell>
        <mxCell id="2ZAYoPAfcxRGO_iiZ7II-128" value="" style="group" vertex="1" connectable="0" parent="2ZAYoPAfcxRGO_iiZ7II-126">
          <mxGeometry width="220" height="140" as="geometry" />
        </mxCell>
        <mxCell id="2ZAYoPAfcxRGO_iiZ7II-129" value="" style="group" vertex="1" connectable="0" parent="2ZAYoPAfcxRGO_iiZ7II-128">
          <mxGeometry width="180" height="120" as="geometry" />
        </mxCell>
        <mxCell id="2ZAYoPAfcxRGO_iiZ7II-109" value="Users" style="shape=table;startSize=30;container=1;collapsible=1;childLayout=tableLayout;fixedRows=1;rowLines=0;fontStyle=1;align=center;resizeLast=1;" vertex="1" parent="2ZAYoPAfcxRGO_iiZ7II-129">
          <mxGeometry width="180" height="120" as="geometry">
            <mxRectangle width="70" height="30" as="alternateBounds" />
          </mxGeometry>
        </mxCell>
        <mxCell id="2ZAYoPAfcxRGO_iiZ7II-110" value="" style="shape=partialRectangle;collapsible=0;dropTarget=0;pointerEvents=0;fillColor=none;top=0;left=0;bottom=1;right=0;points=[[0,0.5],[1,0.5]];portConstraint=eastwest;" vertex="1" parent="2ZAYoPAfcxRGO_iiZ7II-109">
          <mxGeometry y="30" width="180" height="30" as="geometry" />
        </mxCell>
        <mxCell id="2ZAYoPAfcxRGO_iiZ7II-111" value="PK" style="shape=partialRectangle;connectable=0;fillColor=none;top=0;left=0;bottom=0;right=0;fontStyle=1;overflow=hidden;" vertex="1" parent="2ZAYoPAfcxRGO_iiZ7II-110">
          <mxGeometry width="30" height="30" as="geometry" />
        </mxCell>
        <mxCell id="2ZAYoPAfcxRGO_iiZ7II-112" value="UserID, tinyint" style="shape=partialRectangle;connectable=0;fillColor=none;top=0;left=0;bottom=0;right=0;align=left;spacingLeft=6;fontStyle=5;overflow=hidden;" vertex="1" parent="2ZAYoPAfcxRGO_iiZ7II-110">
          <mxGeometry x="30" width="150" height="30" as="geometry" />
        </mxCell>
        <mxCell id="2ZAYoPAfcxRGO_iiZ7II-113" value="" style="shape=partialRectangle;collapsible=0;dropTarget=0;pointerEvents=0;fillColor=none;top=0;left=0;bottom=0;right=0;points=[[0,0.5],[1,0.5]];portConstraint=eastwest;" vertex="1" parent="2ZAYoPAfcxRGO_iiZ7II-109">
          <mxGeometry y="60" width="180" height="30" as="geometry" />
        </mxCell>
        <mxCell id="2ZAYoPAfcxRGO_iiZ7II-114" value="" style="shape=partialRectangle;connectable=0;fillColor=none;top=0;left=0;bottom=0;right=0;editable=1;overflow=hidden;" vertex="1" parent="2ZAYoPAfcxRGO_iiZ7II-113">
          <mxGeometry width="30" height="30" as="geometry" />
        </mxCell>
        <mxCell id="2ZAYoPAfcxRGO_iiZ7II-115" value="Login, nvarchar (30)" style="shape=partialRectangle;connectable=0;fillColor=none;top=0;left=0;bottom=0;right=0;align=left;spacingLeft=6;overflow=hidden;" vertex="1" parent="2ZAYoPAfcxRGO_iiZ7II-113">
          <mxGeometry x="30" width="150" height="30" as="geometry" />
        </mxCell>
        <mxCell id="2ZAYoPAfcxRGO_iiZ7II-116" value="" style="shape=partialRectangle;collapsible=0;dropTarget=0;pointerEvents=0;fillColor=none;top=0;left=0;bottom=0;right=0;points=[[0,0.5],[1,0.5]];portConstraint=eastwest;" vertex="1" parent="2ZAYoPAfcxRGO_iiZ7II-109">
          <mxGeometry y="90" width="180" height="30" as="geometry" />
        </mxCell>
        <mxCell id="2ZAYoPAfcxRGO_iiZ7II-117" value="" style="shape=partialRectangle;connectable=0;fillColor=none;top=0;left=0;bottom=0;right=0;editable=1;overflow=hidden;" vertex="1" parent="2ZAYoPAfcxRGO_iiZ7II-116">
          <mxGeometry width="30" height="30" as="geometry" />
        </mxCell>
        <mxCell id="2ZAYoPAfcxRGO_iiZ7II-118" value="" style="shape=partialRectangle;connectable=0;fillColor=none;top=0;left=0;bottom=0;right=0;align=left;spacingLeft=6;overflow=hidden;" vertex="1" parent="2ZAYoPAfcxRGO_iiZ7II-116">
          <mxGeometry x="30" width="150" height="30" as="geometry" />
        </mxCell>
        <mxCell id="2ZAYoPAfcxRGO_iiZ7II-125" value="Password, nvarchar (30)" style="shape=partialRectangle;connectable=0;fillColor=none;top=0;left=0;bottom=0;right=0;align=left;spacingLeft=6;overflow=hidden;" vertex="1" parent="2ZAYoPAfcxRGO_iiZ7II-129">
          <mxGeometry x="30" y="90" width="150" height="30" as="geometry" />
        </mxCell>
        <mxCell id="2ZAYoPAfcxRGO_iiZ7II-156" value="" style="group" vertex="1" connectable="0" parent="1">
          <mxGeometry x="450" y="20" width="220" height="140" as="geometry" />
        </mxCell>
        <mxCell id="2ZAYoPAfcxRGO_iiZ7II-157" value="" style="group" vertex="1" connectable="0" parent="2ZAYoPAfcxRGO_iiZ7II-156">
          <mxGeometry width="220" height="140" as="geometry" />
        </mxCell>
        <mxCell id="2ZAYoPAfcxRGO_iiZ7II-158" value="" style="group" vertex="1" connectable="0" parent="2ZAYoPAfcxRGO_iiZ7II-157">
          <mxGeometry width="220" height="140" as="geometry" />
        </mxCell>
        <mxCell id="2ZAYoPAfcxRGO_iiZ7II-159" value="" style="group" vertex="1" connectable="0" parent="2ZAYoPAfcxRGO_iiZ7II-158">
          <mxGeometry width="180" height="120" as="geometry" />
        </mxCell>
        <mxCell id="2ZAYoPAfcxRGO_iiZ7II-160" value="Ranks" style="shape=table;startSize=30;container=1;collapsible=1;childLayout=tableLayout;fixedRows=1;rowLines=0;fontStyle=1;align=center;resizeLast=1;" vertex="1" parent="2ZAYoPAfcxRGO_iiZ7II-159">
          <mxGeometry width="180" height="90.00000000000006" as="geometry" />
        </mxCell>
        <mxCell id="2ZAYoPAfcxRGO_iiZ7II-161" value="" style="shape=partialRectangle;collapsible=0;dropTarget=0;pointerEvents=0;fillColor=none;top=0;left=0;bottom=1;right=0;points=[[0,0.5],[1,0.5]];portConstraint=eastwest;" vertex="1" parent="2ZAYoPAfcxRGO_iiZ7II-160">
          <mxGeometry y="30" width="180" height="30" as="geometry" />
        </mxCell>
        <mxCell id="2ZAYoPAfcxRGO_iiZ7II-162" value="PK" style="shape=partialRectangle;connectable=0;fillColor=none;top=0;left=0;bottom=0;right=0;fontStyle=1;overflow=hidden;" vertex="1" parent="2ZAYoPAfcxRGO_iiZ7II-161">
          <mxGeometry width="30" height="30" as="geometry" />
        </mxCell>
        <mxCell id="2ZAYoPAfcxRGO_iiZ7II-163" value="RankID, tinyint" style="shape=partialRectangle;connectable=0;fillColor=none;top=0;left=0;bottom=0;right=0;align=left;spacingLeft=6;fontStyle=5;overflow=hidden;" vertex="1" parent="2ZAYoPAfcxRGO_iiZ7II-161">
          <mxGeometry x="30" width="150" height="30" as="geometry" />
        </mxCell>
        <mxCell id="2ZAYoPAfcxRGO_iiZ7II-164" value="" style="shape=partialRectangle;collapsible=0;dropTarget=0;pointerEvents=0;fillColor=none;top=0;left=0;bottom=0;right=0;points=[[0,0.5],[1,0.5]];portConstraint=eastwest;" vertex="1" parent="2ZAYoPAfcxRGO_iiZ7II-160">
          <mxGeometry y="60" width="180" height="30" as="geometry" />
        </mxCell>
        <mxCell id="2ZAYoPAfcxRGO_iiZ7II-165" value="" style="shape=partialRectangle;connectable=0;fillColor=none;top=0;left=0;bottom=0;right=0;editable=1;overflow=hidden;" vertex="1" parent="2ZAYoPAfcxRGO_iiZ7II-164">
          <mxGeometry width="30" height="30" as="geometry" />
        </mxCell>
        <mxCell id="2ZAYoPAfcxRGO_iiZ7II-166" value="Rank, nvarchar (30)" style="shape=partialRectangle;connectable=0;fillColor=none;top=0;left=0;bottom=0;right=0;align=left;spacingLeft=6;overflow=hidden;" vertex="1" parent="2ZAYoPAfcxRGO_iiZ7II-164">
          <mxGeometry x="30" width="150" height="30" as="geometry" />
        </mxCell>
        <mxCell id="2ZAYoPAfcxRGO_iiZ7II-201" value="" style="group" vertex="1" connectable="0" parent="1">
          <mxGeometry x="670" y="20" width="180" height="120" as="geometry" />
        </mxCell>
        <mxCell id="2ZAYoPAfcxRGO_iiZ7II-186" value="CalcConstTransitTaxes" style="shape=table;startSize=30;container=1;collapsible=1;childLayout=tableLayout;fixedRows=1;rowLines=0;fontStyle=1;align=center;resizeLast=1;" vertex="1" parent="2ZAYoPAfcxRGO_iiZ7II-201">
          <mxGeometry x="1" width="180" height="120" as="geometry" />
        </mxCell>
        <mxCell id="2ZAYoPAfcxRGO_iiZ7II-187" value="" style="shape=partialRectangle;collapsible=0;dropTarget=0;pointerEvents=0;fillColor=none;top=0;left=0;bottom=1;right=0;points=[[0,0.5],[1,0.5]];portConstraint=eastwest;" vertex="1" parent="2ZAYoPAfcxRGO_iiZ7II-186">
          <mxGeometry y="30" width="180" height="30" as="geometry" />
        </mxCell>
        <mxCell id="2ZAYoPAfcxRGO_iiZ7II-188" value="PK" style="shape=partialRectangle;connectable=0;fillColor=none;top=0;left=0;bottom=0;right=0;fontStyle=1;overflow=hidden;strokeColor=#000000;" vertex="1" parent="2ZAYoPAfcxRGO_iiZ7II-187">
          <mxGeometry width="30" height="30" as="geometry" />
        </mxCell>
        <mxCell id="2ZAYoPAfcxRGO_iiZ7II-189" value="StartDate, date" style="shape=partialRectangle;connectable=0;fillColor=none;top=0;left=0;bottom=0;right=0;align=left;spacingLeft=6;fontStyle=5;overflow=hidden;" vertex="1" parent="2ZAYoPAfcxRGO_iiZ7II-187">
          <mxGeometry x="30" width="150" height="30" as="geometry" />
        </mxCell>
        <mxCell id="2ZAYoPAfcxRGO_iiZ7II-196" style="shape=partialRectangle;collapsible=0;dropTarget=0;pointerEvents=0;fillColor=none;top=0;left=0;bottom=1;right=0;points=[[0,0.5],[1,0.5]];portConstraint=eastwest;" vertex="1" parent="2ZAYoPAfcxRGO_iiZ7II-186">
          <mxGeometry y="60" width="180" height="30" as="geometry" />
        </mxCell>
        <mxCell id="2ZAYoPAfcxRGO_iiZ7II-197" value="PK" style="shape=partialRectangle;connectable=0;fillColor=none;top=0;left=0;bottom=0;right=0;fontStyle=1;overflow=hidden;strokeColor=#FFFFFF;" vertex="1" parent="2ZAYoPAfcxRGO_iiZ7II-196">
          <mxGeometry width="30" height="30" as="geometry" />
        </mxCell>
        <mxCell id="2ZAYoPAfcxRGO_iiZ7II-198" value="EndDate, date" style="shape=partialRectangle;connectable=0;fillColor=none;top=0;left=0;bottom=0;right=0;align=left;spacingLeft=6;fontStyle=5;overflow=hidden;" vertex="1" parent="2ZAYoPAfcxRGO_iiZ7II-196">
          <mxGeometry x="30" width="150" height="30" as="geometry" />
        </mxCell>
        <mxCell id="2ZAYoPAfcxRGO_iiZ7II-190" value="" style="shape=partialRectangle;collapsible=0;dropTarget=0;pointerEvents=0;fillColor=none;top=0;left=0;bottom=0;right=0;points=[[0,0.5],[1,0.5]];portConstraint=eastwest;" vertex="1" parent="2ZAYoPAfcxRGO_iiZ7II-186">
          <mxGeometry y="90" width="180" height="30" as="geometry" />
        </mxCell>
        <mxCell id="2ZAYoPAfcxRGO_iiZ7II-191" value="" style="shape=partialRectangle;connectable=0;fillColor=none;top=0;left=0;bottom=0;right=0;editable=1;overflow=hidden;" vertex="1" parent="2ZAYoPAfcxRGO_iiZ7II-190">
          <mxGeometry width="30" height="30" as="geometry" />
        </mxCell>
        <mxCell id="2ZAYoPAfcxRGO_iiZ7II-192" value="Value, tinyint" style="shape=partialRectangle;connectable=0;fillColor=none;top=0;left=0;bottom=0;right=0;align=left;spacingLeft=6;overflow=hidden;" vertex="1" parent="2ZAYoPAfcxRGO_iiZ7II-190">
          <mxGeometry x="30" width="150" height="30" as="geometry" />
        </mxCell>
        <mxCell id="2ZAYoPAfcxRGO_iiZ7II-203" value="CalcConstDailyTaxes" style="shape=table;startSize=30;container=1;collapsible=1;childLayout=tableLayout;fixedRows=1;rowLines=0;fontStyle=1;align=center;resizeLast=1;" vertex="1" parent="1">
          <mxGeometry x="670" y="170" width="180" height="120" as="geometry" />
        </mxCell>
        <mxCell id="2ZAYoPAfcxRGO_iiZ7II-204" value="" style="shape=partialRectangle;collapsible=0;dropTarget=0;pointerEvents=0;fillColor=none;top=0;left=0;bottom=1;right=0;points=[[0,0.5],[1,0.5]];portConstraint=eastwest;" vertex="1" parent="2ZAYoPAfcxRGO_iiZ7II-203">
          <mxGeometry y="30" width="180" height="30" as="geometry" />
        </mxCell>
        <mxCell id="2ZAYoPAfcxRGO_iiZ7II-205" value="PK" style="shape=partialRectangle;connectable=0;fillColor=none;top=0;left=0;bottom=0;right=0;fontStyle=1;overflow=hidden;strokeColor=#000000;" vertex="1" parent="2ZAYoPAfcxRGO_iiZ7II-204">
          <mxGeometry width="30" height="30" as="geometry" />
        </mxCell>
        <mxCell id="2ZAYoPAfcxRGO_iiZ7II-206" value="StartDate, date" style="shape=partialRectangle;connectable=0;fillColor=none;top=0;left=0;bottom=0;right=0;align=left;spacingLeft=6;fontStyle=5;overflow=hidden;" vertex="1" parent="2ZAYoPAfcxRGO_iiZ7II-204">
          <mxGeometry x="30" width="150" height="30" as="geometry" />
        </mxCell>
        <mxCell id="2ZAYoPAfcxRGO_iiZ7II-207" style="shape=partialRectangle;collapsible=0;dropTarget=0;pointerEvents=0;fillColor=none;top=0;left=0;bottom=1;right=0;points=[[0,0.5],[1,0.5]];portConstraint=eastwest;" vertex="1" parent="2ZAYoPAfcxRGO_iiZ7II-203">
          <mxGeometry y="60" width="180" height="30" as="geometry" />
        </mxCell>
        <mxCell id="2ZAYoPAfcxRGO_iiZ7II-208" value="PK" style="shape=partialRectangle;connectable=0;fillColor=none;top=0;left=0;bottom=0;right=0;fontStyle=1;overflow=hidden;strokeColor=#FFFFFF;" vertex="1" parent="2ZAYoPAfcxRGO_iiZ7II-207">
          <mxGeometry width="30" height="30" as="geometry" />
        </mxCell>
        <mxCell id="2ZAYoPAfcxRGO_iiZ7II-209" value="EndDate, date" style="shape=partialRectangle;connectable=0;fillColor=none;top=0;left=0;bottom=0;right=0;align=left;spacingLeft=6;fontStyle=5;overflow=hidden;" vertex="1" parent="2ZAYoPAfcxRGO_iiZ7II-207">
          <mxGeometry x="30" width="150" height="30" as="geometry" />
        </mxCell>
        <mxCell id="2ZAYoPAfcxRGO_iiZ7II-210" value="" style="shape=partialRectangle;collapsible=0;dropTarget=0;pointerEvents=0;fillColor=none;top=0;left=0;bottom=0;right=0;points=[[0,0.5],[1,0.5]];portConstraint=eastwest;" vertex="1" parent="2ZAYoPAfcxRGO_iiZ7II-203">
          <mxGeometry y="90" width="180" height="30" as="geometry" />
        </mxCell>
        <mxCell id="2ZAYoPAfcxRGO_iiZ7II-211" value="" style="shape=partialRectangle;connectable=0;fillColor=none;top=0;left=0;bottom=0;right=0;editable=1;overflow=hidden;" vertex="1" parent="2ZAYoPAfcxRGO_iiZ7II-210">
          <mxGeometry width="30" height="30" as="geometry" />
        </mxCell>
        <mxCell id="2ZAYoPAfcxRGO_iiZ7II-212" value="Value, tinyint" style="shape=partialRectangle;connectable=0;fillColor=none;top=0;left=0;bottom=0;right=0;align=left;spacingLeft=6;overflow=hidden;" vertex="1" parent="2ZAYoPAfcxRGO_iiZ7II-210">
          <mxGeometry x="30" width="150" height="30" as="geometry" />
        </mxCell>
        <mxCell id="2ZAYoPAfcxRGO_iiZ7II-231" value="LocalityTypes" style="shape=table;startSize=30;container=1;collapsible=1;childLayout=tableLayout;fixedRows=1;rowLines=0;fontStyle=1;align=center;resizeLast=1;" vertex="1" parent="1">
          <mxGeometry x="890" y="20" width="190" height="90" as="geometry" />
        </mxCell>
        <mxCell id="2ZAYoPAfcxRGO_iiZ7II-232" value="" style="shape=partialRectangle;collapsible=0;dropTarget=0;pointerEvents=0;fillColor=none;top=0;left=0;bottom=1;right=0;points=[[0,0.5],[1,0.5]];portConstraint=eastwest;" vertex="1" parent="2ZAYoPAfcxRGO_iiZ7II-231">
          <mxGeometry y="30" width="190" height="30" as="geometry" />
        </mxCell>
        <mxCell id="2ZAYoPAfcxRGO_iiZ7II-233" value="PK" style="shape=partialRectangle;connectable=0;fillColor=none;top=0;left=0;bottom=0;right=0;fontStyle=1;overflow=hidden;strokeColor=#000000;" vertex="1" parent="2ZAYoPAfcxRGO_iiZ7II-232">
          <mxGeometry width="30" height="30" as="geometry" />
        </mxCell>
        <mxCell id="2ZAYoPAfcxRGO_iiZ7II-234" value="LocalityTypeID, tinyint" style="shape=partialRectangle;connectable=0;fillColor=none;top=0;left=0;bottom=0;right=0;align=left;spacingLeft=6;fontStyle=5;overflow=hidden;" vertex="1" parent="2ZAYoPAfcxRGO_iiZ7II-232">
          <mxGeometry x="30" width="160" height="30" as="geometry" />
        </mxCell>
        <mxCell id="2ZAYoPAfcxRGO_iiZ7II-238" value="" style="shape=partialRectangle;collapsible=0;dropTarget=0;pointerEvents=0;fillColor=none;top=0;left=0;bottom=0;right=0;points=[[0,0.5],[1,0.5]];portConstraint=eastwest;" vertex="1" parent="2ZAYoPAfcxRGO_iiZ7II-231">
          <mxGeometry y="60" width="190" height="30" as="geometry" />
        </mxCell>
        <mxCell id="2ZAYoPAfcxRGO_iiZ7II-239" value="" style="shape=partialRectangle;connectable=0;fillColor=none;top=0;left=0;bottom=0;right=0;editable=1;overflow=hidden;" vertex="1" parent="2ZAYoPAfcxRGO_iiZ7II-238">
          <mxGeometry width="30" height="30" as="geometry" />
        </mxCell>
        <mxCell id="2ZAYoPAfcxRGO_iiZ7II-240" value="LocalityType, nvarchar (15)" style="shape=partialRectangle;connectable=0;fillColor=none;top=0;left=0;bottom=0;right=0;align=left;spacingLeft=6;overflow=hidden;" vertex="1" parent="2ZAYoPAfcxRGO_iiZ7II-238">
          <mxGeometry x="30" width="160" height="30" as="geometry" />
        </mxCell>
        <mxCell id="2ZAYoPAfcxRGO_iiZ7II-213" value="CalcConstDwellingTaxes" style="shape=table;startSize=30;container=1;collapsible=1;childLayout=tableLayout;fixedRows=1;rowLines=0;fontStyle=1;align=center;resizeLast=1;" vertex="1" parent="1">
          <mxGeometry x="670" y="320" width="180" height="150" as="geometry" />
        </mxCell>
        <mxCell id="2ZAYoPAfcxRGO_iiZ7II-214" value="" style="shape=partialRectangle;collapsible=0;dropTarget=0;pointerEvents=0;fillColor=none;top=0;left=0;bottom=1;right=0;points=[[0,0.5],[1,0.5]];portConstraint=eastwest;" vertex="1" parent="2ZAYoPAfcxRGO_iiZ7II-213">
          <mxGeometry y="30" width="180" height="30" as="geometry" />
        </mxCell>
        <mxCell id="2ZAYoPAfcxRGO_iiZ7II-215" value="PK" style="shape=partialRectangle;connectable=0;fillColor=none;top=0;left=0;bottom=0;right=0;fontStyle=1;overflow=hidden;strokeColor=#000000;" vertex="1" parent="2ZAYoPAfcxRGO_iiZ7II-214">
          <mxGeometry width="30" height="30" as="geometry" />
        </mxCell>
        <mxCell id="2ZAYoPAfcxRGO_iiZ7II-216" value="StartDate, date" style="shape=partialRectangle;connectable=0;fillColor=none;top=0;left=0;bottom=0;right=0;align=left;spacingLeft=6;fontStyle=5;overflow=hidden;" vertex="1" parent="2ZAYoPAfcxRGO_iiZ7II-214">
          <mxGeometry x="30" width="150" height="30" as="geometry" />
        </mxCell>
        <mxCell id="2ZAYoPAfcxRGO_iiZ7II-217" style="shape=partialRectangle;collapsible=0;dropTarget=0;pointerEvents=0;fillColor=none;top=0;left=0;bottom=1;right=0;points=[[0,0.5],[1,0.5]];portConstraint=eastwest;" vertex="1" parent="2ZAYoPAfcxRGO_iiZ7II-213">
          <mxGeometry y="60" width="180" height="30" as="geometry" />
        </mxCell>
        <mxCell id="2ZAYoPAfcxRGO_iiZ7II-218" value="PK" style="shape=partialRectangle;connectable=0;fillColor=none;top=0;left=0;bottom=0;right=0;fontStyle=1;overflow=hidden;strokeColor=#FFFFFF;" vertex="1" parent="2ZAYoPAfcxRGO_iiZ7II-217">
          <mxGeometry width="30" height="30" as="geometry" />
        </mxCell>
        <mxCell id="2ZAYoPAfcxRGO_iiZ7II-219" value="EndDate, date" style="shape=partialRectangle;connectable=0;fillColor=none;top=0;left=0;bottom=0;right=0;align=left;spacingLeft=6;fontStyle=5;overflow=hidden;" vertex="1" parent="2ZAYoPAfcxRGO_iiZ7II-217">
          <mxGeometry x="30" width="150" height="30" as="geometry" />
        </mxCell>
        <mxCell id="2ZAYoPAfcxRGO_iiZ7II-224" style="shape=partialRectangle;collapsible=0;dropTarget=0;pointerEvents=0;fillColor=none;top=0;left=0;bottom=1;right=0;points=[[0,0.5],[1,0.5]];portConstraint=eastwest;" vertex="1" parent="2ZAYoPAfcxRGO_iiZ7II-213">
          <mxGeometry y="90" width="180" height="30" as="geometry" />
        </mxCell>
        <mxCell id="2ZAYoPAfcxRGO_iiZ7II-225" value="PK" style="shape=partialRectangle;connectable=0;fillColor=none;top=0;left=0;bottom=0;right=0;fontStyle=1;overflow=hidden;strokeColor=#FFFFFF;" vertex="1" parent="2ZAYoPAfcxRGO_iiZ7II-224">
          <mxGeometry width="30" height="30" as="geometry" />
        </mxCell>
        <mxCell id="2ZAYoPAfcxRGO_iiZ7II-226" value="LocalityTypeID,tinyint" style="shape=partialRectangle;connectable=0;fillColor=none;top=0;left=0;bottom=0;right=0;align=left;spacingLeft=6;fontStyle=5;overflow=hidden;" vertex="1" parent="2ZAYoPAfcxRGO_iiZ7II-224">
          <mxGeometry x="30" width="150" height="30" as="geometry" />
        </mxCell>
        <mxCell id="2ZAYoPAfcxRGO_iiZ7II-220" value="" style="shape=partialRectangle;collapsible=0;dropTarget=0;pointerEvents=0;fillColor=none;top=0;left=0;bottom=0;right=0;points=[[0,0.5],[1,0.5]];portConstraint=eastwest;" vertex="1" parent="2ZAYoPAfcxRGO_iiZ7II-213">
          <mxGeometry y="120" width="180" height="30" as="geometry" />
        </mxCell>
        <mxCell id="2ZAYoPAfcxRGO_iiZ7II-221" value="" style="shape=partialRectangle;connectable=0;fillColor=none;top=0;left=0;bottom=0;right=0;editable=1;overflow=hidden;" vertex="1" parent="2ZAYoPAfcxRGO_iiZ7II-220">
          <mxGeometry width="30" height="30" as="geometry" />
        </mxCell>
        <mxCell id="2ZAYoPAfcxRGO_iiZ7II-222" value="Value, tinyint" style="shape=partialRectangle;connectable=0;fillColor=none;top=0;left=0;bottom=0;right=0;align=left;spacingLeft=6;overflow=hidden;" vertex="1" parent="2ZAYoPAfcxRGO_iiZ7II-220">
          <mxGeometry x="30" width="150" height="30" as="geometry" />
        </mxCell>
        <mxCell id="2ZAYoPAfcxRGO_iiZ7II-241" value="Localities" style="shape=table;startSize=30;container=1;collapsible=1;childLayout=tableLayout;fixedRows=1;rowLines=0;fontStyle=1;align=center;resizeLast=1;" vertex="1" parent="1">
          <mxGeometry x="890" y="150" width="190" height="120" as="geometry" />
        </mxCell>
        <mxCell id="2ZAYoPAfcxRGO_iiZ7II-242" value="" style="shape=partialRectangle;collapsible=0;dropTarget=0;pointerEvents=0;fillColor=none;top=0;left=0;bottom=1;right=0;points=[[0,0.5],[1,0.5]];portConstraint=eastwest;" vertex="1" parent="2ZAYoPAfcxRGO_iiZ7II-241">
          <mxGeometry y="30" width="190" height="30" as="geometry" />
        </mxCell>
        <mxCell id="2ZAYoPAfcxRGO_iiZ7II-243" value="PK" style="shape=partialRectangle;connectable=0;fillColor=none;top=0;left=0;bottom=0;right=0;fontStyle=1;overflow=hidden;strokeColor=#000000;" vertex="1" parent="2ZAYoPAfcxRGO_iiZ7II-242">
          <mxGeometry width="30" height="30" as="geometry" />
        </mxCell>
        <mxCell id="2ZAYoPAfcxRGO_iiZ7II-244" value="LocalityID, tinyint" style="shape=partialRectangle;connectable=0;fillColor=none;top=0;left=0;bottom=0;right=0;align=left;spacingLeft=6;fontStyle=5;overflow=hidden;" vertex="1" parent="2ZAYoPAfcxRGO_iiZ7II-242">
          <mxGeometry x="30" width="160" height="30" as="geometry" />
        </mxCell>
        <mxCell id="2ZAYoPAfcxRGO_iiZ7II-245" value="" style="shape=partialRectangle;collapsible=0;dropTarget=0;pointerEvents=0;fillColor=none;top=0;left=0;bottom=0;right=0;points=[[0,0.5],[1,0.5]];portConstraint=eastwest;" vertex="1" parent="2ZAYoPAfcxRGO_iiZ7II-241">
          <mxGeometry y="60" width="190" height="30" as="geometry" />
        </mxCell>
        <mxCell id="2ZAYoPAfcxRGO_iiZ7II-246" value="" style="shape=partialRectangle;connectable=0;fillColor=none;top=0;left=0;bottom=0;right=0;editable=1;overflow=hidden;" vertex="1" parent="2ZAYoPAfcxRGO_iiZ7II-245">
          <mxGeometry width="30" height="30" as="geometry" />
        </mxCell>
        <mxCell id="2ZAYoPAfcxRGO_iiZ7II-247" value="Name, nvarchar (30)" style="shape=partialRectangle;connectable=0;fillColor=none;top=0;left=0;bottom=0;right=0;align=left;spacingLeft=6;overflow=hidden;" vertex="1" parent="2ZAYoPAfcxRGO_iiZ7II-245">
          <mxGeometry x="30" width="160" height="30" as="geometry" />
        </mxCell>
        <mxCell id="2ZAYoPAfcxRGO_iiZ7II-248" style="shape=partialRectangle;collapsible=0;dropTarget=0;pointerEvents=0;fillColor=none;top=0;left=0;bottom=0;right=0;points=[[0,0.5],[1,0.5]];portConstraint=eastwest;" vertex="1" parent="2ZAYoPAfcxRGO_iiZ7II-241">
          <mxGeometry y="90" width="190" height="30" as="geometry" />
        </mxCell>
        <mxCell id="2ZAYoPAfcxRGO_iiZ7II-249" value="FK" style="shape=partialRectangle;connectable=0;fillColor=none;top=0;left=0;bottom=0;right=0;editable=1;overflow=hidden;" vertex="1" parent="2ZAYoPAfcxRGO_iiZ7II-248">
          <mxGeometry width="30" height="30" as="geometry" />
        </mxCell>
        <mxCell id="2ZAYoPAfcxRGO_iiZ7II-250" value="LocalityTypeID, tinyint" style="shape=partialRectangle;connectable=0;fillColor=none;top=0;left=0;bottom=0;right=0;align=left;spacingLeft=6;overflow=hidden;" vertex="1" parent="2ZAYoPAfcxRGO_iiZ7II-248">
          <mxGeometry x="30" width="160" height="30" as="geometry" />
        </mxCell>
        <mxCell id="2ZAYoPAfcxRGO_iiZ7II-293" value="BusinessTripPurposes" style="shape=table;startSize=30;container=1;collapsible=1;childLayout=tableLayout;fixedRows=1;rowLines=0;fontStyle=1;align=center;resizeLast=1;" vertex="1" parent="1">
          <mxGeometry x="890" y="305" width="190" height="120" as="geometry" />
        </mxCell>
        <mxCell id="2ZAYoPAfcxRGO_iiZ7II-294" value="" style="shape=partialRectangle;collapsible=0;dropTarget=0;pointerEvents=0;fillColor=none;top=0;left=0;bottom=1;right=0;points=[[0,0.5],[1,0.5]];portConstraint=eastwest;" vertex="1" parent="2ZAYoPAfcxRGO_iiZ7II-293">
          <mxGeometry y="30" width="190" height="30" as="geometry" />
        </mxCell>
        <mxCell id="2ZAYoPAfcxRGO_iiZ7II-295" value="PK" style="shape=partialRectangle;connectable=0;fillColor=none;top=0;left=0;bottom=0;right=0;fontStyle=1;overflow=hidden;strokeColor=#000000;" vertex="1" parent="2ZAYoPAfcxRGO_iiZ7II-294">
          <mxGeometry width="30" height="30" as="geometry" />
        </mxCell>
        <mxCell id="2ZAYoPAfcxRGO_iiZ7II-296" value="PurposeID, tinyint" style="shape=partialRectangle;connectable=0;fillColor=none;top=0;left=0;bottom=0;right=0;align=left;spacingLeft=6;fontStyle=5;overflow=hidden;" vertex="1" parent="2ZAYoPAfcxRGO_iiZ7II-294">
          <mxGeometry x="30" width="160" height="30" as="geometry" />
        </mxCell>
        <mxCell id="2ZAYoPAfcxRGO_iiZ7II-297" value="" style="shape=partialRectangle;collapsible=0;dropTarget=0;pointerEvents=0;fillColor=none;top=0;left=0;bottom=0;right=0;points=[[0,0.5],[1,0.5]];portConstraint=eastwest;" vertex="1" parent="2ZAYoPAfcxRGO_iiZ7II-293">
          <mxGeometry y="60" width="190" height="30" as="geometry" />
        </mxCell>
        <mxCell id="2ZAYoPAfcxRGO_iiZ7II-298" value="" style="shape=partialRectangle;connectable=0;fillColor=none;top=0;left=0;bottom=0;right=0;editable=1;overflow=hidden;" vertex="1" parent="2ZAYoPAfcxRGO_iiZ7II-297">
          <mxGeometry width="30" height="30" as="geometry" />
        </mxCell>
        <mxCell id="2ZAYoPAfcxRGO_iiZ7II-299" value="Purpose, nvarchar" style="shape=partialRectangle;connectable=0;fillColor=none;top=0;left=0;bottom=0;right=0;align=left;spacingLeft=6;overflow=hidden;" vertex="1" parent="2ZAYoPAfcxRGO_iiZ7II-297">
          <mxGeometry x="30" width="160" height="30" as="geometry" />
        </mxCell>
        <mxCell id="2ZAYoPAfcxRGO_iiZ7II-300" style="shape=partialRectangle;collapsible=0;dropTarget=0;pointerEvents=0;fillColor=none;top=0;left=0;bottom=0;right=0;points=[[0,0.5],[1,0.5]];portConstraint=eastwest;" vertex="1" parent="2ZAYoPAfcxRGO_iiZ7II-293">
          <mxGeometry y="90" width="190" height="30" as="geometry" />
        </mxCell>
        <mxCell id="2ZAYoPAfcxRGO_iiZ7II-301" value="" style="shape=partialRectangle;connectable=0;fillColor=none;top=0;left=0;bottom=0;right=0;editable=1;overflow=hidden;" vertex="1" parent="2ZAYoPAfcxRGO_iiZ7II-300">
          <mxGeometry width="30" height="30" as="geometry" />
        </mxCell>
        <mxCell id="2ZAYoPAfcxRGO_iiZ7II-302" value="ExpenditureItem, tinyint" style="shape=partialRectangle;connectable=0;fillColor=none;top=0;left=0;bottom=0;right=0;align=left;spacingLeft=6;overflow=hidden;" vertex="1" parent="2ZAYoPAfcxRGO_iiZ7II-300">
          <mxGeometry x="30" width="160" height="30" as="geometry" />
        </mxCell>
        <mxCell id="2ZAYoPAfcxRGO_iiZ7II-312" value="" style="group" vertex="1" connectable="0" parent="1">
          <mxGeometry x="20" y="180" width="191.36" height="240" as="geometry" />
        </mxCell>
        <mxCell id="2ZAYoPAfcxRGO_iiZ7II-277" value="StatementInfoID, smallint" style="shape=partialRectangle;connectable=0;fillColor=none;top=0;left=0;bottom=0;right=0;align=left;spacingLeft=6;overflow=hidden;" vertex="1" parent="2ZAYoPAfcxRGO_iiZ7II-312">
          <mxGeometry x="31.36363636363636" y="120" width="156.8181818181818" height="30" as="geometry" />
        </mxCell>
        <mxCell id="2ZAYoPAfcxRGO_iiZ7II-278" value="TeamID, smallint" style="shape=partialRectangle;connectable=0;fillColor=none;top=0;left=0;bottom=0;right=0;align=left;spacingLeft=6;overflow=hidden;" vertex="1" parent="2ZAYoPAfcxRGO_iiZ7II-312">
          <mxGeometry x="31.36363636363636" y="210" width="156.8181818181818" height="30" as="geometry" />
        </mxCell>
        <mxCell id="2ZAYoPAfcxRGO_iiZ7II-281" value="BusinessTrips" style="shape=table;startSize=30;container=1;collapsible=1;childLayout=tableLayout;fixedRows=1;rowLines=0;fontStyle=1;align=center;resizeLast=1;" vertex="1" parent="2ZAYoPAfcxRGO_iiZ7II-312">
          <mxGeometry width="188.18" height="240" as="geometry" />
        </mxCell>
        <mxCell id="2ZAYoPAfcxRGO_iiZ7II-282" value="" style="shape=partialRectangle;collapsible=0;dropTarget=0;pointerEvents=0;fillColor=none;top=0;left=0;bottom=1;right=0;points=[[0,0.5],[1,0.5]];portConstraint=eastwest;" vertex="1" parent="2ZAYoPAfcxRGO_iiZ7II-281">
          <mxGeometry y="30" width="188.18" height="30" as="geometry" />
        </mxCell>
        <mxCell id="2ZAYoPAfcxRGO_iiZ7II-283" value="PK" style="shape=partialRectangle;connectable=0;fillColor=none;top=0;left=0;bottom=0;right=0;fontStyle=1;overflow=hidden;" vertex="1" parent="2ZAYoPAfcxRGO_iiZ7II-282">
          <mxGeometry width="29.999999999999996" height="30" as="geometry" />
        </mxCell>
        <mxCell id="2ZAYoPAfcxRGO_iiZ7II-284" value="BusinessTripID, smallint" style="shape=partialRectangle;connectable=0;fillColor=none;top=0;left=0;bottom=0;right=0;align=left;spacingLeft=6;fontStyle=5;overflow=hidden;" vertex="1" parent="2ZAYoPAfcxRGO_iiZ7II-282">
          <mxGeometry x="29.999999999999996" width="158.18" height="30" as="geometry" />
        </mxCell>
        <mxCell id="2ZAYoPAfcxRGO_iiZ7II-285" value="" style="shape=partialRectangle;collapsible=0;dropTarget=0;pointerEvents=0;fillColor=none;top=0;left=0;bottom=0;right=0;points=[[0,0.5],[1,0.5]];portConstraint=eastwest;" vertex="1" parent="2ZAYoPAfcxRGO_iiZ7II-281">
          <mxGeometry y="60" width="188.18" height="30" as="geometry" />
        </mxCell>
        <mxCell id="2ZAYoPAfcxRGO_iiZ7II-286" value="FK" style="shape=partialRectangle;connectable=0;fillColor=none;top=0;left=0;bottom=0;right=0;editable=1;overflow=hidden;" vertex="1" parent="2ZAYoPAfcxRGO_iiZ7II-285">
          <mxGeometry width="29.999999999999996" height="30" as="geometry" />
        </mxCell>
        <mxCell id="2ZAYoPAfcxRGO_iiZ7II-287" value="EmployeeID, smallint" style="shape=partialRectangle;connectable=0;fillColor=none;top=0;left=0;bottom=0;right=0;align=left;spacingLeft=6;overflow=hidden;" vertex="1" parent="2ZAYoPAfcxRGO_iiZ7II-285">
          <mxGeometry x="29.999999999999996" width="158.18" height="30" as="geometry" />
        </mxCell>
        <mxCell id="2ZAYoPAfcxRGO_iiZ7II-288" value="" style="shape=partialRectangle;collapsible=0;dropTarget=0;pointerEvents=0;fillColor=none;top=0;left=0;bottom=0;right=0;points=[[0,0.5],[1,0.5]];portConstraint=eastwest;" vertex="1" parent="2ZAYoPAfcxRGO_iiZ7II-281">
          <mxGeometry y="90" width="188.18" height="30" as="geometry" />
        </mxCell>
        <mxCell id="2ZAYoPAfcxRGO_iiZ7II-289" value="FK" style="shape=partialRectangle;connectable=0;fillColor=none;top=0;left=0;bottom=0;right=0;editable=1;overflow=hidden;" vertex="1" parent="2ZAYoPAfcxRGO_iiZ7II-288">
          <mxGeometry width="29.999999999999996" height="30" as="geometry" />
        </mxCell>
        <mxCell id="2ZAYoPAfcxRGO_iiZ7II-290" value="" style="shape=partialRectangle;connectable=0;fillColor=none;top=0;left=0;bottom=0;right=0;align=left;spacingLeft=6;overflow=hidden;" vertex="1" parent="2ZAYoPAfcxRGO_iiZ7II-288">
          <mxGeometry x="29.999999999999996" width="158.18" height="30" as="geometry" />
        </mxCell>
        <mxCell id="2ZAYoPAfcxRGO_iiZ7II-291" value="OrderInfoID, smallint" style="shape=partialRectangle;connectable=0;fillColor=none;top=0;left=0;bottom=0;right=0;align=left;spacingLeft=6;overflow=hidden;" vertex="1" parent="2ZAYoPAfcxRGO_iiZ7II-312">
          <mxGeometry x="31.36363636363636" y="90" width="156.8181818181818" height="30" as="geometry" />
        </mxCell>
        <mxCell id="2ZAYoPAfcxRGO_iiZ7II-292" value="CalculationID, smallint" style="shape=partialRectangle;connectable=0;fillColor=none;top=0;left=0;bottom=0;right=0;align=left;spacingLeft=6;overflow=hidden;" vertex="1" parent="2ZAYoPAfcxRGO_iiZ7II-312">
          <mxGeometry x="30" y="150" width="160" height="30" as="geometry" />
        </mxCell>
        <mxCell id="2ZAYoPAfcxRGO_iiZ7II-304" value="PurposeID, tinyint" style="shape=partialRectangle;connectable=0;fillColor=none;top=0;left=0;bottom=0;right=0;align=left;spacingLeft=6;overflow=hidden;" vertex="1" parent="2ZAYoPAfcxRGO_iiZ7II-312">
          <mxGeometry x="31.36" y="180" width="160" height="30" as="geometry" />
        </mxCell>
        <mxCell id="2ZAYoPAfcxRGO_iiZ7II-305" value="FK" style="text;html=1;align=center;verticalAlign=middle;resizable=0;points=[];autosize=1;" vertex="1" parent="2ZAYoPAfcxRGO_iiZ7II-312">
          <mxGeometry y="125" width="30" height="20" as="geometry" />
        </mxCell>
        <mxCell id="2ZAYoPAfcxRGO_iiZ7II-308" value="FK" style="shape=partialRectangle;connectable=0;fillColor=none;top=0;left=0;bottom=0;right=0;editable=1;overflow=hidden;" vertex="1" parent="2ZAYoPAfcxRGO_iiZ7II-312">
          <mxGeometry y="150" width="30" height="30" as="geometry" />
        </mxCell>
        <mxCell id="2ZAYoPAfcxRGO_iiZ7II-309" value="FK" style="shape=partialRectangle;connectable=0;fillColor=none;top=0;left=0;bottom=0;right=0;editable=1;overflow=hidden;" vertex="1" parent="2ZAYoPAfcxRGO_iiZ7II-312">
          <mxGeometry y="180" width="30" height="30" as="geometry" />
        </mxCell>
        <mxCell id="2ZAYoPAfcxRGO_iiZ7II-311" value="FK" style="shape=partialRectangle;connectable=0;fillColor=none;top=0;left=0;bottom=0;right=0;editable=1;overflow=hidden;" vertex="1" parent="2ZAYoPAfcxRGO_iiZ7II-312">
          <mxGeometry y="210" width="30" height="30" as="geometry" />
        </mxCell>
        <mxCell id="2ZAYoPAfcxRGO_iiZ7II-135" value="" style="group" vertex="1" connectable="0" parent="1">
          <mxGeometry x="240" y="20" width="185.5274381575206" height="306.88524590163934" as="geometry" />
        </mxCell>
        <mxCell id="2ZAYoPAfcxRGO_iiZ7II-149" value="LastName, nvarchar (30)" style="shape=partialRectangle;connectable=0;fillColor=none;top=0;left=0;bottom=0;right=0;align=left;spacingLeft=6;overflow=hidden;" vertex="1" parent="2ZAYoPAfcxRGO_iiZ7II-135">
          <mxGeometry x="30.9212396929201" y="141.63934426229508" width="154.6061984646005" height="35.40983606557377" as="geometry" />
        </mxCell>
        <mxCell id="2ZAYoPAfcxRGO_iiZ7II-154" value="UserID, tinyint" style="shape=partialRectangle;connectable=0;fillColor=none;top=0;left=0;bottom=0;right=0;align=left;spacingLeft=6;overflow=hidden;" vertex="1" parent="2ZAYoPAfcxRGO_iiZ7II-135">
          <mxGeometry x="30.9212396929201" y="212.45901639344262" width="154.6061984646005" height="35.40983606557377" as="geometry" />
        </mxCell>
        <mxCell id="2ZAYoPAfcxRGO_iiZ7II-155" value="FK" style="text;html=1;align=center;verticalAlign=middle;resizable=0;points=[];autosize=1;" vertex="1" parent="2ZAYoPAfcxRGO_iiZ7II-135">
          <mxGeometry y="218.36065573770492" width="30" height="20" as="geometry" />
        </mxCell>
        <mxCell id="2ZAYoPAfcxRGO_iiZ7II-272" value="" style="group" vertex="1" connectable="0" parent="2ZAYoPAfcxRGO_iiZ7II-135">
          <mxGeometry width="185.5274381575206" height="247.86885245901638" as="geometry" />
        </mxCell>
        <mxCell id="2ZAYoPAfcxRGO_iiZ7II-136" value="Staff" style="shape=table;startSize=30;container=1;collapsible=1;childLayout=tableLayout;fixedRows=1;rowLines=0;fontStyle=1;align=center;resizeLast=1;" vertex="1" parent="2ZAYoPAfcxRGO_iiZ7II-272">
          <mxGeometry width="185.5274381575206" height="247.86885245901638" as="geometry" />
        </mxCell>
        <mxCell id="2ZAYoPAfcxRGO_iiZ7II-137" value="" style="shape=partialRectangle;collapsible=0;dropTarget=0;pointerEvents=0;fillColor=none;top=0;left=0;bottom=1;right=0;points=[[0,0.5],[1,0.5]];portConstraint=eastwest;" vertex="1" parent="2ZAYoPAfcxRGO_iiZ7II-136">
          <mxGeometry y="30" width="185.5274381575206" height="30" as="geometry" />
        </mxCell>
        <mxCell id="2ZAYoPAfcxRGO_iiZ7II-138" value="PK" style="shape=partialRectangle;connectable=0;fillColor=none;top=0;left=0;bottom=0;right=0;fontStyle=1;overflow=hidden;" vertex="1" parent="2ZAYoPAfcxRGO_iiZ7II-137">
          <mxGeometry width="30" height="30" as="geometry" />
        </mxCell>
        <mxCell id="2ZAYoPAfcxRGO_iiZ7II-139" value="EmployeeID, smallint" style="shape=partialRectangle;connectable=0;fillColor=none;top=0;left=0;bottom=0;right=0;align=left;spacingLeft=6;fontStyle=5;overflow=hidden;" vertex="1" parent="2ZAYoPAfcxRGO_iiZ7II-137">
          <mxGeometry x="30" width="155.5274381575206" height="30" as="geometry" />
        </mxCell>
        <mxCell id="2ZAYoPAfcxRGO_iiZ7II-140" value="" style="shape=partialRectangle;collapsible=0;dropTarget=0;pointerEvents=0;fillColor=none;top=0;left=0;bottom=0;right=0;points=[[0,0.5],[1,0.5]];portConstraint=eastwest;" vertex="1" parent="2ZAYoPAfcxRGO_iiZ7II-136">
          <mxGeometry y="60" width="185.5274381575206" height="30" as="geometry" />
        </mxCell>
        <mxCell id="2ZAYoPAfcxRGO_iiZ7II-141" value="FK" style="shape=partialRectangle;connectable=0;fillColor=none;top=0;left=0;bottom=0;right=0;editable=1;overflow=hidden;" vertex="1" parent="2ZAYoPAfcxRGO_iiZ7II-140">
          <mxGeometry width="30" height="30" as="geometry" />
        </mxCell>
        <mxCell id="2ZAYoPAfcxRGO_iiZ7II-142" value="RankID, tinyint" style="shape=partialRectangle;connectable=0;fillColor=none;top=0;left=0;bottom=0;right=0;align=left;spacingLeft=6;overflow=hidden;" vertex="1" parent="2ZAYoPAfcxRGO_iiZ7II-140">
          <mxGeometry x="30" width="155.5274381575206" height="30" as="geometry" />
        </mxCell>
        <mxCell id="2ZAYoPAfcxRGO_iiZ7II-143" value="" style="shape=partialRectangle;collapsible=0;dropTarget=0;pointerEvents=0;fillColor=none;top=0;left=0;bottom=0;right=0;points=[[0,0.5],[1,0.5]];portConstraint=eastwest;" vertex="1" parent="2ZAYoPAfcxRGO_iiZ7II-136">
          <mxGeometry y="90" width="185.5274381575206" height="30" as="geometry" />
        </mxCell>
        <mxCell id="2ZAYoPAfcxRGO_iiZ7II-144" value="" style="shape=partialRectangle;connectable=0;fillColor=none;top=0;left=0;bottom=0;right=0;editable=1;overflow=hidden;" vertex="1" parent="2ZAYoPAfcxRGO_iiZ7II-143">
          <mxGeometry width="30" height="30" as="geometry" />
        </mxCell>
        <mxCell id="2ZAYoPAfcxRGO_iiZ7II-145" value="" style="shape=partialRectangle;connectable=0;fillColor=none;top=0;left=0;bottom=0;right=0;align=left;spacingLeft=6;overflow=hidden;" vertex="1" parent="2ZAYoPAfcxRGO_iiZ7II-143">
          <mxGeometry x="30" width="155.5274381575206" height="30" as="geometry" />
        </mxCell>
        <mxCell id="2ZAYoPAfcxRGO_iiZ7II-146" value="FirstName, nvarchar (30)" style="shape=partialRectangle;connectable=0;fillColor=none;top=0;left=0;bottom=0;right=0;align=left;spacingLeft=6;overflow=hidden;" vertex="1" parent="2ZAYoPAfcxRGO_iiZ7II-272">
          <mxGeometry x="30.9212396929201" y="106.22950819672131" width="154.6061984646005" height="35.40983606557377" as="geometry" />
        </mxCell>
        <mxCell id="2ZAYoPAfcxRGO_iiZ7II-150" value="Partonymic, nvarchar (30)" style="shape=partialRectangle;connectable=0;fillColor=none;top=0;left=0;bottom=0;right=0;align=left;spacingLeft=6;overflow=hidden;" vertex="1" parent="2ZAYoPAfcxRGO_iiZ7II-272">
          <mxGeometry x="30.9212396929201" y="177.04918032786884" width="154.6061984646005" height="35.40983606557377" as="geometry" />
        </mxCell>
        <mxCell id="2ZAYoPAfcxRGO_iiZ7II-316" value="OrderInfo" style="shape=table;startSize=30;container=1;collapsible=1;childLayout=tableLayout;fixedRows=1;rowLines=0;fontStyle=1;align=center;resizeLast=1;" vertex="1" parent="1">
          <mxGeometry x="332.76" y="326.89" width="193.96" height="493.11" as="geometry" />
        </mxCell>
        <mxCell id="2ZAYoPAfcxRGO_iiZ7II-317" value="" style="shape=partialRectangle;collapsible=0;dropTarget=0;pointerEvents=0;fillColor=none;top=0;left=0;bottom=1;right=0;points=[[0,0.5],[1,0.5]];portConstraint=eastwest;" vertex="1" parent="2ZAYoPAfcxRGO_iiZ7II-316">
          <mxGeometry y="30" width="193.96" height="30" as="geometry" />
        </mxCell>
        <mxCell id="2ZAYoPAfcxRGO_iiZ7II-318" value="PK" style="shape=partialRectangle;connectable=0;fillColor=none;top=0;left=0;bottom=0;right=0;fontStyle=1;overflow=hidden;" vertex="1" parent="2ZAYoPAfcxRGO_iiZ7II-317">
          <mxGeometry width="30" height="30" as="geometry" />
        </mxCell>
        <mxCell id="2ZAYoPAfcxRGO_iiZ7II-319" value="OrderInfoID, smallint" style="shape=partialRectangle;connectable=0;fillColor=none;top=0;left=0;bottom=0;right=0;align=left;spacingLeft=6;fontStyle=5;overflow=hidden;" vertex="1" parent="2ZAYoPAfcxRGO_iiZ7II-317">
          <mxGeometry x="30" width="163.96" height="30" as="geometry" />
        </mxCell>
        <mxCell id="2ZAYoPAfcxRGO_iiZ7II-320" value="" style="shape=partialRectangle;collapsible=0;dropTarget=0;pointerEvents=0;fillColor=none;top=0;left=0;bottom=0;right=0;points=[[0,0.5],[1,0.5]];portConstraint=eastwest;" vertex="1" parent="2ZAYoPAfcxRGO_iiZ7II-316">
          <mxGeometry y="60" width="193.96" height="30" as="geometry" />
        </mxCell>
        <mxCell id="2ZAYoPAfcxRGO_iiZ7II-321" value="" style="shape=partialRectangle;connectable=0;fillColor=none;top=0;left=0;bottom=0;right=0;editable=1;overflow=hidden;" vertex="1" parent="2ZAYoPAfcxRGO_iiZ7II-320">
          <mxGeometry width="30" height="30" as="geometry" />
        </mxCell>
        <mxCell id="2ZAYoPAfcxRGO_iiZ7II-322" value="BusinessTripID, smallint" style="shape=partialRectangle;connectable=0;fillColor=none;top=0;left=0;bottom=0;right=0;align=left;spacingLeft=6;overflow=hidden;" vertex="1" parent="2ZAYoPAfcxRGO_iiZ7II-320">
          <mxGeometry x="30" width="163.96" height="30" as="geometry" />
        </mxCell>
        <mxCell id="2ZAYoPAfcxRGO_iiZ7II-323" value="" style="shape=partialRectangle;collapsible=0;dropTarget=0;pointerEvents=0;fillColor=none;top=0;left=0;bottom=0;right=0;points=[[0,0.5],[1,0.5]];portConstraint=eastwest;" vertex="1" parent="2ZAYoPAfcxRGO_iiZ7II-316">
          <mxGeometry y="90" width="193.96" height="30" as="geometry" />
        </mxCell>
        <mxCell id="2ZAYoPAfcxRGO_iiZ7II-324" value="&#xa;&#xa;&lt;span style=&quot;color: rgb(0, 0, 0); font-family: helvetica; font-size: 12px; font-style: normal; font-weight: 400; letter-spacing: normal; text-align: left; text-indent: 0px; text-transform: none; word-spacing: 0px; background-color: rgb(248, 249, 250); display: inline; float: none;&quot;&gt;BusinessTripID, smallint&lt;/span&gt;&#xa;&#xa;" style="shape=partialRectangle;connectable=0;fillColor=none;top=0;left=0;bottom=0;right=0;editable=1;overflow=hidden;" vertex="1" parent="2ZAYoPAfcxRGO_iiZ7II-323">
          <mxGeometry width="30" height="30" as="geometry" />
        </mxCell>
        <mxCell id="2ZAYoPAfcxRGO_iiZ7II-325" value="OrderNumber, smallint" style="shape=partialRectangle;connectable=0;fillColor=none;top=0;left=0;bottom=0;right=0;align=left;spacingLeft=6;overflow=hidden;" vertex="1" parent="2ZAYoPAfcxRGO_iiZ7II-323">
          <mxGeometry x="30" width="163.96" height="30" as="geometry" />
        </mxCell>
        <mxCell id="2ZAYoPAfcxRGO_iiZ7II-330" value="" style="shape=partialRectangle;connectable=0;fillColor=none;top=0;left=0;bottom=0;right=0;editable=1;overflow=hidden;" vertex="1" parent="1">
          <mxGeometry x="332.7637190787603" y="503.9344262295082" width="30.9212396929201" height="35.40983606557377" as="geometry" />
        </mxCell>
        <mxCell id="2ZAYoPAfcxRGO_iiZ7II-331" value="" style="shape=partialRectangle;connectable=0;fillColor=none;top=0;left=0;bottom=0;right=0;editable=1;overflow=hidden;" vertex="1" parent="1">
          <mxGeometry x="332.7637190787603" y="539.344262295082" width="30.9212396929201" height="35.40983606557377" as="geometry" />
        </mxCell>
        <mxCell id="2ZAYoPAfcxRGO_iiZ7II-315" value="TeamID, smallint" style="shape=partialRectangle;connectable=0;fillColor=none;top=0;left=0;bottom=0;right=0;align=left;spacingLeft=6;overflow=hidden;" vertex="1" parent="1">
          <mxGeometry x="363.6804696668131" y="789.9968852459017" width="161.63375294026417" height="35.40983606557377" as="geometry" />
        </mxCell>
        <mxCell id="2ZAYoPAfcxRGO_iiZ7II-343" value="" style="group" vertex="1" connectable="0" parent="1">
          <mxGeometry x="363.6849587716804" y="440.00459016393444" width="166.31504122831961" height="318.689344262295" as="geometry" />
        </mxCell>
        <mxCell id="2ZAYoPAfcxRGO_iiZ7II-327" value="LocalityID, tinyint" style="shape=partialRectangle;connectable=0;fillColor=none;top=0;left=0;bottom=0;right=0;align=left;spacingLeft=6;overflow=hidden;" vertex="1" parent="2ZAYoPAfcxRGO_iiZ7II-343">
          <mxGeometry y="70.81967213114757" width="164.91327836224053" height="35.40983606557377" as="geometry" />
        </mxCell>
        <mxCell id="2ZAYoPAfcxRGO_iiZ7II-314" value="EndDate, date" style="shape=partialRectangle;connectable=0;fillColor=none;top=0;left=0;bottom=0;right=0;align=left;spacingLeft=6;overflow=hidden;" vertex="1" parent="2ZAYoPAfcxRGO_iiZ7II-343">
          <mxGeometry x="1.4055108951327497" y="35.40983606557376" width="161.63375294026417" height="35.40983606557377" as="geometry" />
        </mxCell>
        <mxCell id="2ZAYoPAfcxRGO_iiZ7II-326" value="StartDate, date" style="shape=partialRectangle;connectable=0;fillColor=none;top=0;left=0;bottom=0;right=0;align=left;spacingLeft=6;overflow=hidden;" vertex="1" parent="2ZAYoPAfcxRGO_iiZ7II-343">
          <mxGeometry x="1.4055108951327497" width="161.63375294026417" height="35.40983606557377" as="geometry" />
        </mxCell>
        <mxCell id="2ZAYoPAfcxRGO_iiZ7II-328" value="Permanent, bit" style="shape=partialRectangle;connectable=0;fillColor=none;top=0;left=0;bottom=0;right=0;align=left;spacingLeft=6;overflow=hidden;" vertex="1" parent="2ZAYoPAfcxRGO_iiZ7II-343">
          <mxGeometry x="1.401762866079082" y="106.22950819672127" width="164.91327836224053" height="35.40983606557377" as="geometry" />
        </mxCell>
        <mxCell id="2ZAYoPAfcxRGO_iiZ7II-340" value="TrafficForward, bit" style="shape=partialRectangle;connectable=0;fillColor=none;top=0;left=0;bottom=0;right=0;align=left;spacingLeft=6;overflow=hidden;" vertex="1" parent="2ZAYoPAfcxRGO_iiZ7II-343">
          <mxGeometry x="1.401762866079082" y="141.63934426229508" width="164.91327836224053" height="35.40983606557377" as="geometry" />
        </mxCell>
        <mxCell id="2ZAYoPAfcxRGO_iiZ7II-341" value="TrafficBack, bit" style="shape=partialRectangle;connectable=0;fillColor=none;top=0;left=0;bottom=0;right=0;align=left;spacingLeft=6;overflow=hidden;" vertex="1" parent="2ZAYoPAfcxRGO_iiZ7II-343">
          <mxGeometry x="5.684341886080802e-14" y="177.0491803278689" width="164.91327836224053" height="35.40983606557377" as="geometry" />
        </mxCell>
        <mxCell id="2ZAYoPAfcxRGO_iiZ7II-345" value="Feeding, bit" style="shape=partialRectangle;connectable=0;fillColor=none;top=0;left=0;bottom=0;right=0;align=left;spacingLeft=6;overflow=hidden;" vertex="1" parent="2ZAYoPAfcxRGO_iiZ7II-343">
          <mxGeometry x="1.401762866079082" y="212.4595081967213" width="164.91327836224053" height="35.40983606557377" as="geometry" />
        </mxCell>
        <mxCell id="2ZAYoPAfcxRGO_iiZ7II-346" value="Transport, bit" style="shape=partialRectangle;connectable=0;fillColor=none;top=0;left=0;bottom=0;right=0;align=left;spacingLeft=6;overflow=hidden;" vertex="1" parent="2ZAYoPAfcxRGO_iiZ7II-343">
          <mxGeometry x="0.0017628660791046968" y="247.86950819672126" width="164.91327836224053" height="35.40983606557377" as="geometry" />
        </mxCell>
        <mxCell id="2ZAYoPAfcxRGO_iiZ7II-347" value="Lodging, bit" style="shape=partialRectangle;connectable=0;fillColor=none;top=0;left=0;bottom=0;right=0;align=left;spacingLeft=6;overflow=hidden;" vertex="1" parent="2ZAYoPAfcxRGO_iiZ7II-343">
          <mxGeometry x="0.7017628660790933" y="283.2795081967212" width="164.91327836224053" height="35.40983606557377" as="geometry" />
        </mxCell>
        <mxCell id="2ZAYoPAfcxRGO_iiZ7II-348" value="RationPack, tinyint" style="shape=partialRectangle;connectable=0;fillColor=none;top=0;left=0;bottom=0;right=0;align=left;spacingLeft=6;overflow=hidden;" vertex="1" parent="1">
          <mxGeometry x="363.6804696668131" y="758.6968852459017" width="161.63375294026417" height="35.40983606557377" as="geometry" />
        </mxCell>
      </root>
    </mxGraphModel>
  </diagram>
</mxfile>
